<mxfile host="www.draw.io" modified="2020-02-19T22:38:02.665Z" agent="Mozilla/5.0 (Windows NT 10.0; Win64; x64) AppleWebKit/537.36 (KHTML, like Gecko) Chrome/80.0.3987.116 Safari/537.36" etag="EZB4amhH6owwHEojKEQm" version="12.7.2" type="github">
  <diagram id="C5RBs43oDa-KdzZeNtuy" name="Page-1">
    <mxGraphModel dx="2717" dy="1337" grid="1" gridSize="10" guides="1" tooltips="1" connect="1" arrows="1" fold="1" page="1" pageScale="1" pageWidth="827" pageHeight="1169" math="0" shadow="0">
      <root>
        <mxCell id="WIyWlLk6GJQsqaUBKTNV-0" />
        <mxCell id="WIyWlLk6GJQsqaUBKTNV-1" parent="WIyWlLk6GJQsqaUBKTNV-0" />
        <mxCell id="XOe9PcKy7NP5vKXugJTK-4" value="Orders" style="swimlane;childLayout=stackLayout;horizontal=1;startSize=30;horizontalStack=0;fillColor=#008cff;fontColor=#FFFFFF;rounded=1;fontSize=14;fontStyle=0;strokeWidth=2;resizeParent=0;resizeLast=1;shadow=0;dashed=0;align=center;" vertex="1" parent="WIyWlLk6GJQsqaUBKTNV-1">
          <mxGeometry x="334" y="340" width="160" height="120" as="geometry" />
        </mxCell>
        <mxCell id="XOe9PcKy7NP5vKXugJTK-5" value="+OID&#xa;TableNumber&#xa;EIDÂ &#xa;" style="align=left;strokeColor=none;fillColor=none;spacingLeft=4;fontSize=12;verticalAlign=top;resizable=0;rotatable=0;part=1;" vertex="1" parent="XOe9PcKy7NP5vKXugJTK-4">
          <mxGeometry y="30" width="160" height="90" as="geometry" />
        </mxCell>
        <mxCell id="XOe9PcKy7NP5vKXugJTK-8" value="Menu" style="swimlane;childLayout=stackLayout;horizontal=1;startSize=30;horizontalStack=0;fillColor=#008cff;fontColor=#FFFFFF;rounded=1;fontSize=14;fontStyle=0;strokeWidth=2;resizeParent=0;resizeLast=1;shadow=0;dashed=0;align=center;" vertex="1" parent="WIyWlLk6GJQsqaUBKTNV-1">
          <mxGeometry x="334" y="615" width="160" height="120" as="geometry" />
        </mxCell>
        <mxCell id="XOe9PcKy7NP5vKXugJTK-9" value="+MenuID&#xa;ItemName&#xa;Price" style="align=left;strokeColor=none;fillColor=none;spacingLeft=4;fontSize=12;verticalAlign=top;resizable=0;rotatable=0;part=1;" vertex="1" parent="XOe9PcKy7NP5vKXugJTK-8">
          <mxGeometry y="30" width="160" height="90" as="geometry" />
        </mxCell>
        <mxCell id="XOe9PcKy7NP5vKXugJTK-18" value="Employee" style="swimlane;childLayout=stackLayout;horizontal=1;startSize=30;horizontalStack=0;fillColor=#008cff;fontColor=#FFFFFF;rounded=1;fontSize=14;fontStyle=0;strokeWidth=2;resizeParent=0;resizeLast=1;shadow=0;dashed=0;align=center;" vertex="1" parent="WIyWlLk6GJQsqaUBKTNV-1">
          <mxGeometry x="336" y="60" width="160" height="170" as="geometry" />
        </mxCell>
        <mxCell id="XOe9PcKy7NP5vKXugJTK-19" value="+EID&#xa;LocationID&#xa;Name&#xa;Address&#xa;Wage&#xa;{Phone}&#xa;Position" style="align=left;strokeColor=none;fillColor=none;spacingLeft=4;fontSize=12;verticalAlign=top;resizable=0;rotatable=0;part=1;" vertex="1" parent="XOe9PcKy7NP5vKXugJTK-18">
          <mxGeometry y="30" width="160" height="140" as="geometry" />
        </mxCell>
        <mxCell id="XOe9PcKy7NP5vKXugJTK-52" style="edgeStyle=orthogonalEdgeStyle;rounded=0;orthogonalLoop=1;jettySize=auto;html=1;exitX=0.5;exitY=1;exitDx=0;exitDy=0;endArrow=none;endFill=0;strokeColor=#000000;" edge="1" parent="WIyWlLk6GJQsqaUBKTNV-1" source="XOe9PcKy7NP5vKXugJTK-50" target="XOe9PcKy7NP5vKXugJTK-8">
          <mxGeometry relative="1" as="geometry" />
        </mxCell>
        <mxCell id="XOe9PcKy7NP5vKXugJTK-62" style="edgeStyle=orthogonalEdgeStyle;rounded=0;orthogonalLoop=1;jettySize=auto;html=1;exitX=1;exitY=0.5;exitDx=0;exitDy=0;entryX=0.015;entryY=0.501;entryDx=0;entryDy=0;entryPerimeter=0;startArrow=none;startFill=0;endArrow=none;endFill=0;strokeColor=#000000;dashed=1;" edge="1" parent="WIyWlLk6GJQsqaUBKTNV-1" source="XOe9PcKy7NP5vKXugJTK-50" target="XOe9PcKy7NP5vKXugJTK-60">
          <mxGeometry relative="1" as="geometry" />
        </mxCell>
        <mxCell id="XOe9PcKy7NP5vKXugJTK-79" style="edgeStyle=orthogonalEdgeStyle;rounded=0;orthogonalLoop=1;jettySize=auto;html=1;exitX=0;exitY=0.5;exitDx=0;exitDy=0;entryX=1;entryY=0.401;entryDx=0;entryDy=0;entryPerimeter=0;startArrow=none;startFill=0;endArrow=none;endFill=0;strokeColor=#000000;dashed=1;" edge="1" parent="WIyWlLk6GJQsqaUBKTNV-1" source="XOe9PcKy7NP5vKXugJTK-50" target="XOe9PcKy7NP5vKXugJTK-75">
          <mxGeometry relative="1" as="geometry" />
        </mxCell>
        <mxCell id="XOe9PcKy7NP5vKXugJTK-50" value="Contains" style="shape=rhombus;perimeter=rhombusPerimeter;whiteSpace=wrap;html=1;align=center;" vertex="1" parent="WIyWlLk6GJQsqaUBKTNV-1">
          <mxGeometry x="354" y="505" width="120" height="60" as="geometry" />
        </mxCell>
        <mxCell id="XOe9PcKy7NP5vKXugJTK-51" style="edgeStyle=orthogonalEdgeStyle;rounded=0;orthogonalLoop=1;jettySize=auto;html=1;exitX=0.5;exitY=1;exitDx=0;exitDy=0;entryX=0.5;entryY=0;entryDx=0;entryDy=0;endArrow=none;endFill=0;strokeColor=#000000;shape=link;" edge="1" parent="WIyWlLk6GJQsqaUBKTNV-1" source="XOe9PcKy7NP5vKXugJTK-5" target="XOe9PcKy7NP5vKXugJTK-50">
          <mxGeometry relative="1" as="geometry" />
        </mxCell>
        <mxCell id="XOe9PcKy7NP5vKXugJTK-60" value="" style="verticalLabelPosition=bottom;verticalAlign=top;html=1;shape=mxgraph.basic.rect;fillColor2=none;strokeWidth=1;size=20;indent=5;fillColor=none;" vertex="1" parent="WIyWlLk6GJQsqaUBKTNV-1">
          <mxGeometry x="540" y="522.5" width="70" height="25" as="geometry" />
        </mxCell>
        <mxCell id="XOe9PcKy7NP5vKXugJTK-61" value="QTY" style="text;html=1;strokeColor=none;fillColor=none;align=center;verticalAlign=middle;whiteSpace=wrap;rounded=0;" vertex="1" parent="WIyWlLk6GJQsqaUBKTNV-1">
          <mxGeometry x="555" y="525" width="40" height="20" as="geometry" />
        </mxCell>
        <mxCell id="XOe9PcKy7NP5vKXugJTK-70" style="edgeStyle=orthogonalEdgeStyle;rounded=0;orthogonalLoop=1;jettySize=auto;html=1;exitX=0;exitY=0.5;exitDx=0;exitDy=0;entryX=0.988;entryY=0.505;entryDx=0;entryDy=0;entryPerimeter=0;dashed=1;startArrow=none;startFill=0;endArrow=none;endFill=0;strokeColor=#000000;" edge="1" parent="WIyWlLk6GJQsqaUBKTNV-1" source="XOe9PcKy7NP5vKXugJTK-63" target="XOe9PcKy7NP5vKXugJTK-68">
          <mxGeometry relative="1" as="geometry" />
        </mxCell>
        <mxCell id="XOe9PcKy7NP5vKXugJTK-74" style="edgeStyle=orthogonalEdgeStyle;rounded=0;orthogonalLoop=1;jettySize=auto;html=1;exitX=0.5;exitY=0;exitDx=0;exitDy=0;entryX=0;entryY=0.5;entryDx=0;entryDy=0;startArrow=none;startFill=0;endArrow=classic;endFill=1;strokeColor=#000000;" edge="1" parent="WIyWlLk6GJQsqaUBKTNV-1" source="XOe9PcKy7NP5vKXugJTK-63" target="XOe9PcKy7NP5vKXugJTK-19">
          <mxGeometry relative="1" as="geometry" />
        </mxCell>
        <mxCell id="XOe9PcKy7NP5vKXugJTK-63" value="Makes" style="shape=rhombus;perimeter=rhombusPerimeter;whiteSpace=wrap;html=1;align=center;" vertex="1" parent="WIyWlLk6GJQsqaUBKTNV-1">
          <mxGeometry x="150" y="250" width="120" height="60" as="geometry" />
        </mxCell>
        <mxCell id="XOe9PcKy7NP5vKXugJTK-71" style="edgeStyle=orthogonalEdgeStyle;rounded=0;orthogonalLoop=1;jettySize=auto;html=1;exitX=0.5;exitY=1;exitDx=0;exitDy=0;entryX=1;entryY=0.378;entryDx=0;entryDy=0;entryPerimeter=0;startArrow=none;startFill=0;endArrow=none;endFill=0;strokeColor=#000000;shape=link;" edge="1" parent="WIyWlLk6GJQsqaUBKTNV-1" source="XOe9PcKy7NP5vKXugJTK-64" target="XOe9PcKy7NP5vKXugJTK-5">
          <mxGeometry relative="1" as="geometry" />
        </mxCell>
        <mxCell id="XOe9PcKy7NP5vKXugJTK-73" style="edgeStyle=orthogonalEdgeStyle;rounded=0;orthogonalLoop=1;jettySize=auto;html=1;exitX=0.5;exitY=0;exitDx=0;exitDy=0;entryX=1;entryY=0.5;entryDx=0;entryDy=0;startArrow=none;startFill=0;endArrow=classic;endFill=1;strokeColor=#000000;" edge="1" parent="WIyWlLk6GJQsqaUBKTNV-1" source="XOe9PcKy7NP5vKXugJTK-64" target="XOe9PcKy7NP5vKXugJTK-19">
          <mxGeometry relative="1" as="geometry" />
        </mxCell>
        <mxCell id="XOe9PcKy7NP5vKXugJTK-64" value="Takes" style="shape=rhombus;perimeter=rhombusPerimeter;whiteSpace=wrap;html=1;align=center;" vertex="1" parent="WIyWlLk6GJQsqaUBKTNV-1">
          <mxGeometry x="580" y="250" width="120" height="60" as="geometry" />
        </mxCell>
        <mxCell id="XOe9PcKy7NP5vKXugJTK-65" style="edgeStyle=orthogonalEdgeStyle;rounded=0;orthogonalLoop=1;jettySize=auto;html=1;exitX=1;exitY=0.5;exitDx=0;exitDy=0;entryX=0.015;entryY=0.501;entryDx=0;entryDy=0;entryPerimeter=0;startArrow=none;startFill=0;endArrow=none;endFill=0;strokeColor=#000000;dashed=1;" edge="1" parent="WIyWlLk6GJQsqaUBKTNV-1" target="XOe9PcKy7NP5vKXugJTK-66">
          <mxGeometry relative="1" as="geometry">
            <mxPoint x="700" y="280" as="sourcePoint" />
          </mxGeometry>
        </mxCell>
        <mxCell id="XOe9PcKy7NP5vKXugJTK-66" value="" style="verticalLabelPosition=bottom;verticalAlign=top;html=1;shape=mxgraph.basic.rect;fillColor2=none;strokeWidth=1;size=20;indent=5;fillColor=none;" vertex="1" parent="WIyWlLk6GJQsqaUBKTNV-1">
          <mxGeometry x="740" y="267.5" width="70" height="25" as="geometry" />
        </mxCell>
        <mxCell id="XOe9PcKy7NP5vKXugJTK-67" value="EID" style="text;html=1;strokeColor=none;fillColor=none;align=center;verticalAlign=middle;whiteSpace=wrap;rounded=0;" vertex="1" parent="WIyWlLk6GJQsqaUBKTNV-1">
          <mxGeometry x="755" y="270" width="40" height="20" as="geometry" />
        </mxCell>
        <mxCell id="XOe9PcKy7NP5vKXugJTK-68" value="" style="verticalLabelPosition=bottom;verticalAlign=top;html=1;shape=mxgraph.basic.rect;fillColor2=none;strokeWidth=1;size=20;indent=5;fillColor=none;" vertex="1" parent="WIyWlLk6GJQsqaUBKTNV-1">
          <mxGeometry x="20" y="267.5" width="70" height="25" as="geometry" />
        </mxCell>
        <mxCell id="XOe9PcKy7NP5vKXugJTK-69" value="EID" style="text;html=1;strokeColor=none;fillColor=none;align=center;verticalAlign=middle;whiteSpace=wrap;rounded=0;" vertex="1" parent="WIyWlLk6GJQsqaUBKTNV-1">
          <mxGeometry x="35" y="270" width="40" height="20" as="geometry" />
        </mxCell>
        <mxCell id="XOe9PcKy7NP5vKXugJTK-72" style="edgeStyle=orthogonalEdgeStyle;shape=link;rounded=0;orthogonalLoop=1;jettySize=auto;html=1;exitX=0;exitY=0.5;exitDx=0;exitDy=0;entryX=0.5;entryY=1;entryDx=0;entryDy=0;startArrow=none;startFill=0;endArrow=none;endFill=0;strokeColor=#000000;" edge="1" parent="WIyWlLk6GJQsqaUBKTNV-1" source="XOe9PcKy7NP5vKXugJTK-5" target="XOe9PcKy7NP5vKXugJTK-63">
          <mxGeometry relative="1" as="geometry" />
        </mxCell>
        <mxCell id="XOe9PcKy7NP5vKXugJTK-75" value="" style="verticalLabelPosition=bottom;verticalAlign=top;html=1;shape=mxgraph.basic.rect;fillColor2=none;strokeWidth=1;size=20;indent=5;fillColor=none;" vertex="1" parent="WIyWlLk6GJQsqaUBKTNV-1">
          <mxGeometry x="220" y="525" width="70" height="25" as="geometry" />
        </mxCell>
        <mxCell id="XOe9PcKy7NP5vKXugJTK-76" value="MenuID" style="text;html=1;strokeColor=none;fillColor=none;align=center;verticalAlign=middle;whiteSpace=wrap;rounded=0;" vertex="1" parent="WIyWlLk6GJQsqaUBKTNV-1">
          <mxGeometry x="235" y="527.5" width="40" height="20" as="geometry" />
        </mxCell>
        <mxCell id="XOe9PcKy7NP5vKXugJTK-80" value="Stock" style="swimlane;childLayout=stackLayout;horizontal=1;startSize=30;horizontalStack=0;fillColor=#008cff;fontColor=#FFFFFF;rounded=1;fontSize=14;fontStyle=0;strokeWidth=2;resizeParent=0;resizeLast=1;shadow=0;dashed=0;align=center;" vertex="1" parent="WIyWlLk6GJQsqaUBKTNV-1">
          <mxGeometry x="336" y="900" width="160" height="120" as="geometry" />
        </mxCell>
        <mxCell id="XOe9PcKy7NP5vKXugJTK-81" value="+ItemID&#xa;IngredientName&#xa;MenuID" style="align=left;strokeColor=none;fillColor=none;spacingLeft=4;fontSize=12;verticalAlign=top;resizable=0;rotatable=0;part=1;" vertex="1" parent="XOe9PcKy7NP5vKXugJTK-80">
          <mxGeometry y="30" width="160" height="90" as="geometry" />
        </mxCell>
        <mxCell id="XOe9PcKy7NP5vKXugJTK-84" style="edgeStyle=orthogonalEdgeStyle;shape=link;rounded=0;orthogonalLoop=1;jettySize=auto;html=1;exitX=0.5;exitY=1;exitDx=0;exitDy=0;entryX=0.383;entryY=-0.011;entryDx=0;entryDy=0;entryPerimeter=0;startArrow=none;startFill=0;endArrow=none;endFill=0;strokeColor=#000000;" edge="1" parent="WIyWlLk6GJQsqaUBKTNV-1" source="XOe9PcKy7NP5vKXugJTK-82" target="XOe9PcKy7NP5vKXugJTK-80">
          <mxGeometry relative="1" as="geometry" />
        </mxCell>
        <mxCell id="XOe9PcKy7NP5vKXugJTK-82" value="TakesFrom" style="shape=rhombus;perimeter=rhombusPerimeter;whiteSpace=wrap;html=1;align=center;" vertex="1" parent="WIyWlLk6GJQsqaUBKTNV-1">
          <mxGeometry x="354" y="780" width="120" height="60" as="geometry" />
        </mxCell>
        <mxCell id="XOe9PcKy7NP5vKXugJTK-83" style="edgeStyle=orthogonalEdgeStyle;rounded=0;orthogonalLoop=1;jettySize=auto;html=1;exitX=0.5;exitY=1;exitDx=0;exitDy=0;entryX=0.5;entryY=0;entryDx=0;entryDy=0;startArrow=none;startFill=0;endArrow=none;endFill=0;strokeColor=#000000;shape=link;" edge="1" parent="WIyWlLk6GJQsqaUBKTNV-1" source="XOe9PcKy7NP5vKXugJTK-9" target="XOe9PcKy7NP5vKXugJTK-82">
          <mxGeometry relative="1" as="geometry" />
        </mxCell>
        <mxCell id="XOe9PcKy7NP5vKXugJTK-148" value="Employee" style="swimlane;fontStyle=0;childLayout=stackLayout;horizontal=1;startSize=26;fillColor=#e0e0e0;horizontalStack=0;resizeParent=1;resizeParentMax=0;resizeLast=0;collapsible=1;marginBottom=0;swimlaneFillColor=#ffffff;align=center;fontSize=14;" vertex="1" parent="WIyWlLk6GJQsqaUBKTNV-1">
          <mxGeometry x="1160" y="65" width="230" height="160" as="geometry" />
        </mxCell>
        <mxCell id="XOe9PcKy7NP5vKXugJTK-149" value="EID [int not null]" style="shape=partialRectangle;top=0;left=0;right=0;bottom=1;align=left;verticalAlign=middle;fillColor=none;spacingLeft=34;spacingRight=4;overflow=hidden;rotatable=0;points=[[0,0.5],[1,0.5]];portConstraint=eastwest;dropTarget=0;fontStyle=5;fontSize=12;" vertex="1" parent="XOe9PcKy7NP5vKXugJTK-148">
          <mxGeometry y="26" width="230" height="30" as="geometry" />
        </mxCell>
        <mxCell id="XOe9PcKy7NP5vKXugJTK-150" value="PK" style="shape=partialRectangle;top=0;left=0;bottom=0;fillColor=none;align=left;verticalAlign=middle;spacingLeft=4;spacingRight=4;overflow=hidden;rotatable=0;points=[];portConstraint=eastwest;part=1;fontSize=12;" vertex="1" connectable="0" parent="XOe9PcKy7NP5vKXugJTK-149">
          <mxGeometry width="30" height="30" as="geometry" />
        </mxCell>
        <mxCell id="XOe9PcKy7NP5vKXugJTK-151" value="LocationID [int not null]Â &#xa;Name [varchar(50) not null]&#xa;Address [varchar(50) not null]&#xa;Wage [float not null]&#xa;PrimaryPhone [varchar(12) not null]&#xa;Position [varchar(10) not null]Â " style="shape=partialRectangle;top=0;left=0;right=0;bottom=0;align=left;verticalAlign=top;fillColor=none;spacingLeft=34;spacingRight=4;overflow=hidden;rotatable=0;points=[[0,0.5],[1,0.5]];portConstraint=eastwest;dropTarget=0;fontSize=12;" vertex="1" parent="XOe9PcKy7NP5vKXugJTK-148">
          <mxGeometry y="56" width="230" height="104" as="geometry" />
        </mxCell>
        <mxCell id="XOe9PcKy7NP5vKXugJTK-152" value="" style="shape=partialRectangle;top=0;left=0;bottom=0;fillColor=none;align=left;verticalAlign=top;spacingLeft=4;spacingRight=4;overflow=hidden;rotatable=0;points=[];portConstraint=eastwest;part=1;fontSize=12;" vertex="1" connectable="0" parent="XOe9PcKy7NP5vKXugJTK-151">
          <mxGeometry width="30" height="104" as="geometry" />
        </mxCell>
        <mxCell id="XOe9PcKy7NP5vKXugJTK-157" value="" style="shape=partialRectangle;top=0;left=0;right=0;bottom=0;align=left;verticalAlign=top;fillColor=none;spacingLeft=34;spacingRight=4;overflow=hidden;rotatable=0;points=[[0,0.5],[1,0.5]];portConstraint=eastwest;dropTarget=0;fontSize=12;" vertex="1" parent="WIyWlLk6GJQsqaUBKTNV-1">
          <mxGeometry x="1170" y="261" width="160" height="38" as="geometry" />
        </mxCell>
        <mxCell id="XOe9PcKy7NP5vKXugJTK-158" value="" style="shape=partialRectangle;top=0;left=0;bottom=0;fillColor=none;align=left;verticalAlign=top;spacingLeft=4;spacingRight=4;overflow=hidden;rotatable=0;points=[];portConstraint=eastwest;part=1;fontSize=12;" vertex="1" connectable="0" parent="XOe9PcKy7NP5vKXugJTK-157">
          <mxGeometry y="NaN" width="30" height="NaN" as="geometry" />
        </mxCell>
        <mxCell id="XOe9PcKy7NP5vKXugJTK-164" value="Menu" style="swimlane;fontStyle=0;childLayout=stackLayout;horizontal=1;startSize=26;fillColor=#e0e0e0;horizontalStack=0;resizeParent=1;resizeParentMax=0;resizeLast=0;collapsible=1;marginBottom=0;swimlaneFillColor=#ffffff;align=center;fontSize=14;" vertex="1" parent="WIyWlLk6GJQsqaUBKTNV-1">
          <mxGeometry x="1161" y="590" width="210" height="110" as="geometry" />
        </mxCell>
        <mxCell id="XOe9PcKy7NP5vKXugJTK-165" value="MenuID [int not null]" style="shape=partialRectangle;top=0;left=0;right=0;bottom=1;align=left;verticalAlign=middle;fillColor=none;spacingLeft=34;spacingRight=4;overflow=hidden;rotatable=0;points=[[0,0.5],[1,0.5]];portConstraint=eastwest;dropTarget=0;fontStyle=5;fontSize=12;" vertex="1" parent="XOe9PcKy7NP5vKXugJTK-164">
          <mxGeometry y="26" width="210" height="30" as="geometry" />
        </mxCell>
        <mxCell id="XOe9PcKy7NP5vKXugJTK-166" value="PK" style="shape=partialRectangle;top=0;left=0;bottom=0;fillColor=none;align=left;verticalAlign=middle;spacingLeft=4;spacingRight=4;overflow=hidden;rotatable=0;points=[];portConstraint=eastwest;part=1;fontSize=12;" vertex="1" connectable="0" parent="XOe9PcKy7NP5vKXugJTK-165">
          <mxGeometry width="30" height="30" as="geometry" />
        </mxCell>
        <mxCell id="XOe9PcKy7NP5vKXugJTK-167" value="ItemName [varchar(30) not null]&#xa;Price [float not null]" style="shape=partialRectangle;top=0;left=0;right=0;bottom=0;align=left;verticalAlign=top;fillColor=none;spacingLeft=34;spacingRight=4;overflow=hidden;rotatable=0;points=[[0,0.5],[1,0.5]];portConstraint=eastwest;dropTarget=0;fontSize=12;fontStyle=0" vertex="1" parent="XOe9PcKy7NP5vKXugJTK-164">
          <mxGeometry y="56" width="210" height="54" as="geometry" />
        </mxCell>
        <mxCell id="XOe9PcKy7NP5vKXugJTK-168" value="" style="shape=partialRectangle;top=0;left=0;bottom=0;fillColor=none;align=left;verticalAlign=top;spacingLeft=4;spacingRight=4;overflow=hidden;rotatable=0;points=[];portConstraint=eastwest;part=1;fontSize=12;" vertex="1" connectable="0" parent="XOe9PcKy7NP5vKXugJTK-167">
          <mxGeometry width="30" height="54" as="geometry" />
        </mxCell>
        <mxCell id="XOe9PcKy7NP5vKXugJTK-179" value="Stock" style="swimlane;fontStyle=0;childLayout=stackLayout;horizontal=1;startSize=26;fillColor=#e0e0e0;horizontalStack=0;resizeParent=1;resizeParentMax=0;resizeLast=0;collapsible=1;marginBottom=0;swimlaneFillColor=#ffffff;align=center;fontSize=14;" vertex="1" parent="WIyWlLk6GJQsqaUBKTNV-1">
          <mxGeometry x="1161" y="800" width="250" height="118" as="geometry" />
        </mxCell>
        <mxCell id="XOe9PcKy7NP5vKXugJTK-180" value="ItemID [int not null]" style="shape=partialRectangle;top=0;left=0;right=0;bottom=1;align=left;verticalAlign=middle;fillColor=none;spacingLeft=34;spacingRight=4;overflow=hidden;rotatable=0;points=[[0,0.5],[1,0.5]];portConstraint=eastwest;dropTarget=0;fontStyle=5;fontSize=12;" vertex="1" parent="XOe9PcKy7NP5vKXugJTK-179">
          <mxGeometry y="26" width="250" height="30" as="geometry" />
        </mxCell>
        <mxCell id="XOe9PcKy7NP5vKXugJTK-181" value="PK" style="shape=partialRectangle;top=0;left=0;bottom=0;fillColor=none;align=left;verticalAlign=middle;spacingLeft=4;spacingRight=4;overflow=hidden;rotatable=0;points=[];portConstraint=eastwest;part=1;fontSize=12;" vertex="1" connectable="0" parent="XOe9PcKy7NP5vKXugJTK-180">
          <mxGeometry width="30" height="30" as="geometry" />
        </mxCell>
        <mxCell id="XOe9PcKy7NP5vKXugJTK-182" value="MenuID [int not null]" style="shape=partialRectangle;top=0;left=0;right=0;bottom=0;align=left;verticalAlign=top;fillColor=none;spacingLeft=34;spacingRight=4;overflow=hidden;rotatable=0;points=[[0,0.5],[1,0.5]];portConstraint=eastwest;dropTarget=0;fontSize=12;fontStyle=4" vertex="1" parent="XOe9PcKy7NP5vKXugJTK-179">
          <mxGeometry y="56" width="250" height="26" as="geometry" />
        </mxCell>
        <mxCell id="XOe9PcKy7NP5vKXugJTK-183" value="FK" style="shape=partialRectangle;top=0;left=0;bottom=0;fillColor=none;align=left;verticalAlign=top;spacingLeft=4;spacingRight=4;overflow=hidden;rotatable=0;points=[];portConstraint=eastwest;part=1;fontSize=12;" vertex="1" connectable="0" parent="XOe9PcKy7NP5vKXugJTK-182">
          <mxGeometry width="30" height="26" as="geometry" />
        </mxCell>
        <mxCell id="XOe9PcKy7NP5vKXugJTK-184" value="IngredientName [varchar(30) not null]" style="shape=partialRectangle;top=0;left=0;right=0;bottom=0;align=left;verticalAlign=top;fillColor=none;spacingLeft=34;spacingRight=4;overflow=hidden;rotatable=0;points=[[0,0.5],[1,0.5]];portConstraint=eastwest;dropTarget=0;fontSize=12;" vertex="1" parent="XOe9PcKy7NP5vKXugJTK-179">
          <mxGeometry y="82" width="250" height="26" as="geometry" />
        </mxCell>
        <mxCell id="XOe9PcKy7NP5vKXugJTK-185" value="" style="shape=partialRectangle;top=0;left=0;bottom=0;fillColor=none;align=left;verticalAlign=top;spacingLeft=4;spacingRight=4;overflow=hidden;rotatable=0;points=[];portConstraint=eastwest;part=1;fontSize=12;" vertex="1" connectable="0" parent="XOe9PcKy7NP5vKXugJTK-184">
          <mxGeometry width="30" height="26" as="geometry" />
        </mxCell>
        <mxCell id="XOe9PcKy7NP5vKXugJTK-188" value="" style="shape=partialRectangle;top=0;left=0;right=0;bottom=0;align=left;verticalAlign=top;fillColor=none;spacingLeft=34;spacingRight=4;overflow=hidden;rotatable=0;points=[[0,0.5],[1,0.5]];portConstraint=eastwest;dropTarget=0;fontSize=12;" vertex="1" parent="XOe9PcKy7NP5vKXugJTK-179">
          <mxGeometry y="108" width="250" height="10" as="geometry" />
        </mxCell>
        <mxCell id="XOe9PcKy7NP5vKXugJTK-189" value="" style="shape=partialRectangle;top=0;left=0;bottom=0;fillColor=none;align=left;verticalAlign=top;spacingLeft=4;spacingRight=4;overflow=hidden;rotatable=0;points=[];portConstraint=eastwest;part=1;fontSize=12;" vertex="1" connectable="0" parent="XOe9PcKy7NP5vKXugJTK-188">
          <mxGeometry width="30" height="10" as="geometry" />
        </mxCell>
        <mxCell id="XOe9PcKy7NP5vKXugJTK-214" style="edgeStyle=orthogonalEdgeStyle;rounded=0;orthogonalLoop=1;jettySize=auto;html=1;exitX=0;exitY=0.5;exitDx=0;exitDy=0;entryX=0;entryY=0.5;entryDx=0;entryDy=0;startArrow=none;startFill=0;endArrow=classic;endFill=1;strokeColor=#000000;" edge="1" parent="WIyWlLk6GJQsqaUBKTNV-1" source="XOe9PcKy7NP5vKXugJTK-182" target="XOe9PcKy7NP5vKXugJTK-165">
          <mxGeometry relative="1" as="geometry" />
        </mxCell>
        <mxCell id="XOe9PcKy7NP5vKXugJTK-215" style="edgeStyle=orthogonalEdgeStyle;rounded=0;orthogonalLoop=1;jettySize=auto;html=1;exitX=1;exitY=0.5;exitDx=0;exitDy=0;entryX=0;entryY=0.5;entryDx=0;entryDy=0;startArrow=none;startFill=0;endArrow=classic;endFill=1;strokeColor=#000000;" edge="1" parent="WIyWlLk6GJQsqaUBKTNV-1" source="XOe9PcKy7NP5vKXugJTK-222" target="XOe9PcKy7NP5vKXugJTK-165">
          <mxGeometry relative="1" as="geometry">
            <mxPoint x="1080" y="491" as="sourcePoint" />
          </mxGeometry>
        </mxCell>
        <mxCell id="XOe9PcKy7NP5vKXugJTK-218" style="edgeStyle=orthogonalEdgeStyle;rounded=0;orthogonalLoop=1;jettySize=auto;html=1;exitX=1;exitY=0.5;exitDx=0;exitDy=0;entryX=1;entryY=0.5;entryDx=0;entryDy=0;startArrow=none;startFill=0;endArrow=classic;endFill=1;strokeColor=#000000;" edge="1" parent="WIyWlLk6GJQsqaUBKTNV-1" source="XOe9PcKy7NP5vKXugJTK-235" target="XOe9PcKy7NP5vKXugJTK-149">
          <mxGeometry relative="1" as="geometry">
            <mxPoint x="1420" y="275" as="sourcePoint" />
          </mxGeometry>
        </mxCell>
        <mxCell id="XOe9PcKy7NP5vKXugJTK-221" value="Contains" style="swimlane;fontStyle=0;childLayout=stackLayout;horizontal=1;startSize=26;fillColor=#e0e0e0;horizontalStack=0;resizeParent=1;resizeParentMax=0;resizeLast=0;collapsible=1;marginBottom=0;swimlaneFillColor=#ffffff;align=center;fontSize=14;" vertex="1" parent="WIyWlLk6GJQsqaUBKTNV-1">
          <mxGeometry x="910" y="430" width="160" height="118" as="geometry" />
        </mxCell>
        <mxCell id="XOe9PcKy7NP5vKXugJTK-222" value="MenuID [int not null]" style="shape=partialRectangle;top=0;left=0;right=0;bottom=1;align=left;verticalAlign=middle;fillColor=none;spacingLeft=34;spacingRight=4;overflow=hidden;rotatable=0;points=[[0,0.5],[1,0.5]];portConstraint=eastwest;dropTarget=0;fontStyle=5;fontSize=12;" vertex="1" parent="XOe9PcKy7NP5vKXugJTK-221">
          <mxGeometry y="26" width="160" height="30" as="geometry" />
        </mxCell>
        <mxCell id="XOe9PcKy7NP5vKXugJTK-223" value="PK" style="shape=partialRectangle;top=0;left=0;bottom=0;fillColor=none;align=left;verticalAlign=middle;spacingLeft=4;spacingRight=4;overflow=hidden;rotatable=0;points=[];portConstraint=eastwest;part=1;fontSize=12;" vertex="1" connectable="0" parent="XOe9PcKy7NP5vKXugJTK-222">
          <mxGeometry width="30" height="30" as="geometry" />
        </mxCell>
        <mxCell id="XOe9PcKy7NP5vKXugJTK-224" value="OID [int not null]" style="shape=partialRectangle;top=0;left=0;right=0;bottom=0;align=left;verticalAlign=top;fillColor=none;spacingLeft=34;spacingRight=4;overflow=hidden;rotatable=0;points=[[0,0.5],[1,0.5]];portConstraint=eastwest;dropTarget=0;fontSize=12;fontStyle=4" vertex="1" parent="XOe9PcKy7NP5vKXugJTK-221">
          <mxGeometry y="56" width="160" height="26" as="geometry" />
        </mxCell>
        <mxCell id="XOe9PcKy7NP5vKXugJTK-225" value="FK" style="shape=partialRectangle;top=0;left=0;bottom=0;fillColor=none;align=left;verticalAlign=top;spacingLeft=4;spacingRight=4;overflow=hidden;rotatable=0;points=[];portConstraint=eastwest;part=1;fontSize=12;" vertex="1" connectable="0" parent="XOe9PcKy7NP5vKXugJTK-224">
          <mxGeometry width="30" height="26" as="geometry" />
        </mxCell>
        <mxCell id="XOe9PcKy7NP5vKXugJTK-226" value="QTY [int not null]" style="shape=partialRectangle;top=0;left=0;right=0;bottom=0;align=left;verticalAlign=top;fillColor=none;spacingLeft=34;spacingRight=4;overflow=hidden;rotatable=0;points=[[0,0.5],[1,0.5]];portConstraint=eastwest;dropTarget=0;fontSize=12;" vertex="1" parent="XOe9PcKy7NP5vKXugJTK-221">
          <mxGeometry y="82" width="160" height="26" as="geometry" />
        </mxCell>
        <mxCell id="XOe9PcKy7NP5vKXugJTK-227" value="" style="shape=partialRectangle;top=0;left=0;bottom=0;fillColor=none;align=left;verticalAlign=top;spacingLeft=4;spacingRight=4;overflow=hidden;rotatable=0;points=[];portConstraint=eastwest;part=1;fontSize=12;" vertex="1" connectable="0" parent="XOe9PcKy7NP5vKXugJTK-226">
          <mxGeometry width="30" height="26" as="geometry" />
        </mxCell>
        <mxCell id="XOe9PcKy7NP5vKXugJTK-228" value="" style="shape=partialRectangle;top=0;left=0;right=0;bottom=0;align=left;verticalAlign=top;fillColor=none;spacingLeft=34;spacingRight=4;overflow=hidden;rotatable=0;points=[[0,0.5],[1,0.5]];portConstraint=eastwest;dropTarget=0;fontSize=12;" vertex="1" parent="XOe9PcKy7NP5vKXugJTK-221">
          <mxGeometry y="108" width="160" height="10" as="geometry" />
        </mxCell>
        <mxCell id="XOe9PcKy7NP5vKXugJTK-229" value="" style="shape=partialRectangle;top=0;left=0;bottom=0;fillColor=none;align=left;verticalAlign=top;spacingLeft=4;spacingRight=4;overflow=hidden;rotatable=0;points=[];portConstraint=eastwest;part=1;fontSize=12;" vertex="1" connectable="0" parent="XOe9PcKy7NP5vKXugJTK-228">
          <mxGeometry width="30" height="10" as="geometry" />
        </mxCell>
        <mxCell id="XOe9PcKy7NP5vKXugJTK-232" value="Order" style="swimlane;fontStyle=0;childLayout=stackLayout;horizontal=1;startSize=26;fillColor=#e0e0e0;horizontalStack=0;resizeParent=1;resizeParentMax=0;resizeLast=0;collapsible=1;marginBottom=0;swimlaneFillColor=#ffffff;align=center;fontSize=14;" vertex="1" parent="WIyWlLk6GJQsqaUBKTNV-1">
          <mxGeometry x="1161" y="320" width="220" height="140" as="geometry" />
        </mxCell>
        <mxCell id="XOe9PcKy7NP5vKXugJTK-233" value="OID [int not null]" style="shape=partialRectangle;top=0;left=0;right=0;bottom=1;align=left;verticalAlign=middle;fillColor=none;spacingLeft=34;spacingRight=4;overflow=hidden;rotatable=0;points=[[0,0.5],[1,0.5]];portConstraint=eastwest;dropTarget=0;fontStyle=5;fontSize=12;" vertex="1" parent="XOe9PcKy7NP5vKXugJTK-232">
          <mxGeometry y="26" width="220" height="30" as="geometry" />
        </mxCell>
        <mxCell id="XOe9PcKy7NP5vKXugJTK-234" value="PK" style="shape=partialRectangle;top=0;left=0;bottom=0;fillColor=none;align=left;verticalAlign=middle;spacingLeft=4;spacingRight=4;overflow=hidden;rotatable=0;points=[];portConstraint=eastwest;part=1;fontSize=12;" vertex="1" connectable="0" parent="XOe9PcKy7NP5vKXugJTK-233">
          <mxGeometry width="30" height="30" as="geometry" />
        </mxCell>
        <mxCell id="XOe9PcKy7NP5vKXugJTK-235" value="EID [int not null]" style="shape=partialRectangle;top=0;left=0;right=0;bottom=0;align=left;verticalAlign=top;fillColor=none;spacingLeft=34;spacingRight=4;overflow=hidden;rotatable=0;points=[[0,0.5],[1,0.5]];portConstraint=eastwest;dropTarget=0;fontSize=12;fontStyle=4" vertex="1" parent="XOe9PcKy7NP5vKXugJTK-232">
          <mxGeometry y="56" width="220" height="26" as="geometry" />
        </mxCell>
        <mxCell id="XOe9PcKy7NP5vKXugJTK-236" value="FK" style="shape=partialRectangle;top=0;left=0;bottom=0;fillColor=none;align=left;verticalAlign=top;spacingLeft=4;spacingRight=4;overflow=hidden;rotatable=0;points=[];portConstraint=eastwest;part=1;fontSize=12;" vertex="1" connectable="0" parent="XOe9PcKy7NP5vKXugJTK-235">
          <mxGeometry width="30" height="26" as="geometry" />
        </mxCell>
        <mxCell id="XOe9PcKy7NP5vKXugJTK-237" value="TableNumber [int not null]&#xa;OrderTakenEID [int not null]&#xa;OrderPreparedEID [int not null]" style="shape=partialRectangle;top=0;left=0;right=0;bottom=0;align=left;verticalAlign=top;fillColor=none;spacingLeft=34;spacingRight=4;overflow=hidden;rotatable=0;points=[[0,0.5],[1,0.5]];portConstraint=eastwest;dropTarget=0;fontSize=12;" vertex="1" parent="XOe9PcKy7NP5vKXugJTK-232">
          <mxGeometry y="82" width="220" height="58" as="geometry" />
        </mxCell>
        <mxCell id="XOe9PcKy7NP5vKXugJTK-238" value="" style="shape=partialRectangle;top=0;left=0;bottom=0;fillColor=none;align=left;verticalAlign=top;spacingLeft=4;spacingRight=4;overflow=hidden;rotatable=0;points=[];portConstraint=eastwest;part=1;fontSize=12;" vertex="1" connectable="0" parent="XOe9PcKy7NP5vKXugJTK-237">
          <mxGeometry width="30" height="58" as="geometry" />
        </mxCell>
        <mxCell id="XOe9PcKy7NP5vKXugJTK-239" value="" style="shape=partialRectangle;top=0;left=0;right=0;bottom=0;align=left;verticalAlign=top;fillColor=none;spacingLeft=34;spacingRight=4;overflow=hidden;rotatable=0;points=[[0,0.5],[1,0.5]];portConstraint=eastwest;dropTarget=0;fontSize=12;" vertex="1" parent="XOe9PcKy7NP5vKXugJTK-232">
          <mxGeometry y="140" width="220" as="geometry" />
        </mxCell>
        <mxCell id="XOe9PcKy7NP5vKXugJTK-240" value="" style="shape=partialRectangle;top=0;left=0;bottom=0;fillColor=none;align=left;verticalAlign=top;spacingLeft=4;spacingRight=4;overflow=hidden;rotatable=0;points=[];portConstraint=eastwest;part=1;fontSize=12;" vertex="1" connectable="0" parent="XOe9PcKy7NP5vKXugJTK-239">
          <mxGeometry width="30" as="geometry" />
        </mxCell>
        <mxCell id="XOe9PcKy7NP5vKXugJTK-241" style="edgeStyle=orthogonalEdgeStyle;rounded=0;orthogonalLoop=1;jettySize=auto;html=1;exitX=0;exitY=0.5;exitDx=0;exitDy=0;entryX=0;entryY=0.5;entryDx=0;entryDy=0;startArrow=none;startFill=0;endArrow=classic;endFill=1;strokeColor=#000000;" edge="1" parent="WIyWlLk6GJQsqaUBKTNV-1" source="XOe9PcKy7NP5vKXugJTK-233" target="XOe9PcKy7NP5vKXugJTK-224">
          <mxGeometry relative="1" as="geometry" />
        </mxCell>
      </root>
    </mxGraphModel>
  </diagram>
</mxfile>
